<svg aria-hidden="true" style="position:absolute;width:0;height:0" xmlns="http://www.w3.org/2000/svg" overflow="hidden">
  <defs>
    <symbol id="icon-transfer" viewBox="0 0 20 20">
      <path fill="#fff" d="M5.865 16.667h-.01a.403.403 0 0 1-.287-.12.403.403 0 0 1-.12-.287v-1.59c-.271-.117-.553-.368-.844-.751a2.11 2.11 0 0 1-.438-1.292v-.033.002V5c0-.864.468-1.497 1.403-1.898S7.982 2.5 9.999 2.5c2.09 0 3.585.192 4.485.578.898.385 1.348 1.026 1.348 1.922v7.596c0 .5-.146.94-.438 1.323s-.573.633-.845.75v1.581a.403.403 0 0 1-.119.297.403.403 0 0 1-.287.12h-.011.001-.202a.403.403 0 0 1-.287-.12.4.4 0 0 1-.119-.286v-.011.001-1.25H6.473v1.25c0 .118-.04.217-.12.297a.403.403 0 0 1-.287.12h-.2zM5 9.167h10V5.449H5v3.718zm2.088 3.845c.258 0 .478-.09.657-.272s.268-.402.268-.661c0-.26-.09-.479-.272-.658a.905.905 0 0 0-.643-.268h-.019.001a.887.887 0 0 0-.657.272.902.902 0 0 0-.268.644v.018-.001c0 .26.091.479.272.658s.402.268.662.268zm5.833 0c.258 0 .477-.09.657-.272s.268-.402.268-.661c0-.26-.09-.479-.272-.658a.905.905 0 0 0-.643-.268h-.019.001a.888.888 0 0 0-.657.272.902.902 0 0 0-.268.644v.018-.001c0 .26.09.479.272.658s.402.268.661.268zM5.087 4.615h9.846c-.144-.428-.589-.749-1.336-.962s-1.942-.32-3.587-.32c-1.636 0-2.827.108-3.573.325s-1.197.535-1.35.957zm1.58 9.552h6.667c.458 0 .85-.163 1.178-.489.326-.327.489-.719.489-1.178V10h-10v2.5c0 .458.163.85.49 1.178.326.326.718.489 1.177.489z"/>
    </symbol>
    <symbol id="icon-card" viewBox="0 0 20 20">
      <path fill="#fff" d="M17.5 3.282h-15A1.72 1.72 0 0 0 .781 5v10A1.72 1.72 0 0 0 2.5 16.719h15A1.72 1.72 0 0 0 19.219 15V5A1.72 1.72 0 0 0 17.5 3.281zm-15 .936h15c.431.001.781.35.782.782v.782H1.719V5c0-.432.35-.781.781-.782zm15 11.563h-15A.783.783 0 0 1 1.718 15V6.718h16.563V15c0 .431-.35.781-.781.782zM6.028 11.018a1.647 1.647 0 1 0 0-3.294 1.647 1.647 0 1 0 0 3.294zm0-2.357a.71.71 0 0 1 0 1.42.71.71 0 0 1 0-1.42zm0 3.096a2.844 2.844 0 0 0-2.753 2.181l-.004.019-.003.019a.469.469 0 0 0 .914.206l.001-.003v-.002a1.889 1.889 0 0 1 3.684-.025l.003.013.003.013a.47.47 0 0 0 .914-.207v.006a2.852 2.852 0 0 0-2.757-2.22h-.001l-.001.001zM16.25 8.282h-5a.469.469 0 0 0-.001.936h5.001a.469.469 0 0 0 .001-.936h-.001zm0 2.5h-5a.469.469 0 0 0-.001.936h5.001a.469.469 0 0 0 .001-.936h-.001zm0 2.5h-5a.469.469 0 0 0-.001.936h5.001a.47.47 0 0 0 .001-.938h-.001z"/>
    </symbol>
    <symbol id="icon-face" viewBox="0 0 20 20">
      <path fill="#fff" d="M7.5 13.542a1 1 0 0 1-.739-.302 1.002 1.002 0 0 1-.303-.719V12.5v.001c0-.292.101-.538.303-.739s.447-.303.739-.303.538.1.74.303c.201.201.302.447.302.739s-.1.538-.302.739a1.002 1.002 0 0 1-.719.303h-.022.001zm5 0a1 1 0 0 1-.739-.302 1.002 1.002 0 0 1-.303-.719V12.5v.001c0-.292.101-.538.303-.739s.448-.303.739-.303.538.1.74.303c.201.201.302.447.302.739s-.1.538-.302.739a1.002 1.002 0 0 1-.719.303h-.022.001zM10 18.333c1.862 0 3.438-.646 4.729-1.938s1.938-2.868 1.938-4.729c0-.333-.021-.656-.063-.968a4.033 4.033 0 0 0-.239-.934l.009.027a7.49 7.49 0 0 1-1.769.209h-.024.001-.035c-1.291 0-2.512-.3-3.597-.834l.048.021a8.378 8.378 0 0 1-2.863-2.256l-.012-.015a8.245 8.245 0 0 1-1.904 2.82l-.002.002a8.135 8.135 0 0 1-2.83 1.784l-.056.018v.125c0 1.861.646 3.438 1.937 4.729s2.868 1.938 4.729 1.938zM8.09 5.264c.679 1.357 1.639 2.347 2.88 2.969s2.445.933 3.613.933c.258 0 .513-.013.763-.039s.498-.069.747-.129c-.53-1.239-1.351-2.216-2.463-2.928A6.533 6.533 0 0 0 10.029 5h-.03.002c-.365 0-.7.021-1.003.063s-.605.109-.907.201zm-4.643 5.324c.858-.382 1.727-1.007 2.607-1.875s1.393-1.961 1.54-3.276a6.439 6.439 0 0 0-2.758 1.991l-.01.012a6.554 6.554 0 0 0-1.375 3.11l-.005.037zM2.854 9.55a7.17 7.17 0 0 1 1.603-2.941l-.005.006a7.025 7.025 0 0 1 2.71-1.87l.048-.016a3.506 3.506 0 0 0-1.098-.908l-.019-.009a3.074 3.074 0 0 0-1.436-.351h-.039.002c-.925 0-1.708.32-2.348.96s-.958 1.425-.958 2.353c0 .583.14 1.117.423 1.6.28.479.656.874 1.103 1.167l.013.008zm7.149 9.617h-.046c-1.04 0-2.03-.217-2.926-.609l.047.018a7.612 7.612 0 0 1-2.384-1.604A7.572 7.572 0 0 1 3.11 14.64l-.019-.049a7.184 7.184 0 0 1-.592-2.879v-.048.002c0-.219.009-.436.027-.652s.05-.423.098-.624a4.068 4.068 0 0 1-1.55-1.47l-.01-.018A3.985 3.985 0 0 1 .48 6.815V6.77v.002c0-1.152.402-2.132 1.208-2.937.805-.806 1.783-1.208 2.937-1.208.704 0 1.352.163 1.943.492a4.162 4.162 0 0 1 1.45 1.317c.27-.08.6-.151.938-.198l.037-.004a7.474 7.474 0 0 1 1.005-.067c1.037 0 2.012.197 2.925.59a7.603 7.603 0 0 1 2.382 1.604 7.58 7.58 0 0 1 1.584 2.331l.019.049a7.18 7.18 0 0 1 .59 2.875v.052-.003.048c0 1.04-.217 2.029-.608 2.924l.018-.047a7.633 7.633 0 0 1-1.603 2.383 7.575 7.575 0 0 1-2.332 1.585l-.049.019a7.17 7.17 0 0 1-2.876.591h-.049.003z"/>
    </symbol>
    <symbol id="icon-ticket" viewBox="0 0 20 20">
      <path fill="#fff" d="M18.75 8.594a.47.47 0 0 0 .469-.469V5a.469.469 0 0 0-.469-.469H1.25A.469.469 0 0 0 .781 5v3.125c0 .258.21.469.469.469a1.406 1.406 0 0 1 0 2.812.469.469 0 0 0-.469.469V15c0 .258.21.469.469.469h17.5a.47.47 0 0 0 .469-.469v-3.125a.469.469 0 0 0-.469-.469 1.406 1.406 0 0 1 0-2.812zm-.469 3.702v2.235H1.719v-2.235A2.352 2.352 0 0 0 3.594 10a2.344 2.344 0 0 0-1.843-2.29l-.015-.003-.016-.002V5.47h16.563v2.235a2.352 2.352 0 0 0-1.876 2.296c0 1.128.797 2.071 1.86 2.293l.014.003z"/>
    </symbol>
    <symbol id="icon-star" viewBox="0 0 22 20">
      <path fill="#ae990b" d="m10.909 0 2.885 6.937 7.49.6-5.706 4.889 1.743 7.309-6.412-3.917-6.412 3.916 1.743-7.309L.534 7.539l7.49-.6L10.909 0z"/>
    </symbol>
  </defs>
</svg>
