<?xml version="1.0" standalone="no"?>
<!DOCTYPE svg PUBLIC "-//W3C//DTD SVG 20010904//EN"
 "http://www.w3.org/TR/2001/REC-SVG-20010904/DTD/svg10.dtd">
<svg version="1.0" xmlns="http://www.w3.org/2000/svg"
 width="500.000000pt" height="500.000000pt" viewBox="0 0 500.000000 500.000000"
 preserveAspectRatio="xMidYMid meet">
<metadata>
Created by potrace 1.14, written by Peter Selinger 2001-2017
</metadata>
<g transform="translate(0.000000,500.000000) scale(0.100000,-0.100000)"
fill="#000000" stroke="none">
<path d="M3020 4208 c-19 -5 -41 -15 -48 -20 -9 -8 -28 -7 -66 2 -74 18 -100
8 -142 -50 -39 -54 -49 -58 -96 -34 -33 17 -99 15 -151 -5 -16 -6 -42 -10 -57
-9 -16 1 -40 -4 -55 -12 -38 -20 -102 -122 -116 -185 -7 -30 -13 -55 -14 -55
-2 0 -16 7 -31 15 -32 17 -101 20 -123 6 -9 -6 -22 -6 -32 0 -11 5 -27 5 -43
-1 -17 -6 -26 -6 -26 0 0 17 -63 50 -95 50 -17 0 -48 -9 -70 -20 -40 -20 -63
-19 -130 10 -39 16 -64 18 -82 5 -11 -8 -25 -10 -32 -5 -8 4 -28 4 -45 -1 -53
-15 -104 -11 -115 10 -6 10 -26 26 -44 35 -31 14 -175 52 -237 62 -14 2 -38 6
-55 9 -131 20 -371 26 -441 10 -63 -14 -113 -44 -139 -84 -16 -25 -26 -30 -55
-29 -61 2 -101 -35 -114 -104 -6 -34 10 -114 34 -170 11 -26 23 -75 26 -110 4
-54 9 -67 34 -89 36 -31 37 -39 5 -39 -25 0 -51 -22 -118 -100 -65 -75 -141
-162 -166 -189 -64 -71 -91 -159 -73 -239 8 -33 6 -41 -10 -51 -10 -6 -36 -50
-58 -98 -37 -79 -40 -92 -40 -172 l1 -86 89 -70 c116 -91 171 -109 218 -72 8
6 16 6 25 0 20 -17 64 -24 89 -14 15 5 31 5 41 -1 22 -12 133 -31 173 -29 23
1 34 -5 43 -22 16 -30 61 -57 95 -57 36 0 84 22 121 54 17 14 41 26 55 27 142
5 223 36 255 100 10 18 23 29 36 29 23 0 61 18 71 33 3 6 12 12 20 13 40 6 87
15 121 23 22 5 51 6 68 1 40 -12 126 -65 162 -101 27 -28 47 -34 94 -30 13 1
26 -6 32 -18 6 -10 24 -24 41 -29 30 -11 36 -29 31 -98 -4 -43 25 -91 70 -115
23 -13 43 -32 45 -42 1 -10 20 -41 42 -70 36 -47 79 -143 68 -154 -2 -2 -19
-4 -37 -3 -19 0 -43 0 -54 1 -11 0 -27 7 -36 15 -9 8 -31 15 -51 17 -28 2 -40
-4 -66 -34 -41 -47 -61 -95 -57 -139 3 -28 -2 -40 -25 -61 -15 -14 -38 -54
-50 -87 -18 -49 -27 -62 -44 -62 -30 0 -41 -10 -64 -57 -14 -30 -16 -43 -8
-43 7 0 21 -8 30 -19 9 -10 46 -33 81 -51 78 -40 127 -38 184 7 20 16 43 32
52 35 20 8 59 -17 59 -37 0 -18 40 -45 61 -42 35 6 49 28 49 79 0 39 5 54 23
69 12 10 31 18 42 19 15 0 16 3 7 12 -7 7 -12 17 -12 23 0 13 71 36 130 42 87
9 136 49 143 116 4 36 -18 97 -34 97 -19 0 -7 18 19 28 49 20 86 26 78 13 -5
-7 1 -11 16 -11 30 -1 58 -22 58 -46 1 -29 25 -54 53 -54 14 0 60 -16 102 -37
70 -33 85 -36 166 -37 49 -1 89 -2 89 -3 0 0 -23 -17 -50 -37 -85 -61 -150
-128 -160 -165 -20 -74 51 -128 122 -90 16 9 24 7 43 -11 12 -11 35 -25 51
-29 l29 -8 -3 -91 c-4 -115 11 -152 72 -182 84 -40 160 -16 271 88 63 58 70
62 116 62 60 0 86 10 128 49 55 51 67 55 101 29 52 -38 157 -21 206 34 27 29
47 68 40 76 -3 3 1 13 9 22 29 32 29 73 0 104 -25 27 -29 28 -88 22 -67 -7
-88 -8 -142 -5 -27 2 -42 -4 -64 -25 l-28 -27 -28 33 c-36 42 -72 121 -80 173
l-6 40 134 83 c112 68 141 82 176 82 23 0 57 6 75 14 18 8 45 12 59 9 38 -8
67 3 107 37 19 16 43 30 54 30 10 0 45 14 78 30 39 20 73 30 103 30 82 0 119
34 131 120 11 80 19 93 63 117 24 12 51 32 61 43 16 19 28 21 122 19 148 -2
179 17 194 112 4 24 15 55 26 68 22 29 23 74 2 96 -11 11 -14 23 -8 43 4 15 6
31 5 36 -1 4 1 17 5 28 4 15 12 19 30 15 20 -4 22 -2 13 15 -6 11 -8 30 -5 43
4 14 -1 32 -14 47 -19 25 -19 25 2 48 17 18 23 42 29 119 5 53 6 104 3 114 -9
28 -61 49 -103 42 -29 -5 -41 -2 -55 14 -18 19 -69 37 -93 32 -7 -1 -13 2 -13
7 0 4 -9 18 -21 31 -16 17 -30 22 -58 20 -20 -1 -51 5 -70 15 -86 45 -192 69
-206 46 -3 -5 -12 -10 -18 -10 -17 0 -68 52 -96 99 -42 69 -125 83 -233 38
-46 -19 -121 -14 -171 11 -30 16 -45 18 -78 11 -54 -12 -72 1 -63 47 7 39 -26
146 -62 199 -13 20 -24 39 -24 44 0 13 -44 48 -68 54 -12 3 -38 1 -58 -5 -22
-6 -40 -6 -47 0 -7 5 -27 13 -44 17 -32 6 -33 8 -33 56 0 27 4 49 9 49 15 0
42 68 37 95 -6 30 -19 49 -58 83 -15 13 -39 49 -54 81 -38 86 -69 105 -174
107 -47 1 -101 -3 -120 -8z m75 -118 c3 -5 19 -10 35 -10 16 0 32 5 35 10 13
21 26 8 55 -52 16 -34 38 -70 47 -80 16 -18 16 -20 -11 -42 -21 -16 -28 -30
-27 -52 1 -16 2 -39 3 -51 0 -13 4 -23 8 -23 18 0 18 -42 0 -60 -11 -11 -15
-22 -9 -25 5 -4 16 -22 24 -41 12 -30 20 -36 41 -33 3 0 16 -6 28 -15 22 -14
24 -14 29 4 5 21 28 21 67 0 12 -6 42 -12 67 -13 30 -1 48 -7 53 -17 4 -8 17
-36 29 -61 15 -30 23 -68 24 -110 3 -107 54 -152 172 -155 33 -1 85 -11 115
-23 74 -28 105 -26 174 9 71 36 99 38 113 7 46 -100 202 -188 252 -143 20 18
19 18 211 -68 8 -4 26 -13 40 -21 14 -8 37 -15 53 -15 15 0 35 -9 45 -21 22
-27 70 -52 87 -45 9 3 14 -7 17 -30 4 -37 -10 -56 -48 -68 -45 -14 -65 -44
-64 -99 2 -67 -8 -117 -28 -139 -11 -13 -12 -18 -2 -18 23 0 75 -52 81 -82 4
-17 3 -44 -1 -61 -4 -18 -11 -43 -14 -57 -5 -26 -7 -26 -93 -24 -101 2 -153
-8 -177 -34 -9 -11 -41 -31 -72 -47 -66 -34 -83 -63 -109 -187 -4 -24 -9 -26
-51 -26 -32 0 -64 -10 -103 -30 -31 -16 -72 -32 -91 -36 -19 -3 -46 -17 -60
-30 -25 -24 -47 -29 -186 -41 -68 -6 -87 -14 -201 -87 -54 -35 -122 -79 -152
-98 -64 -40 -84 -78 -76 -146 12 -95 72 -215 137 -275 l29 -27 -34 -36 c-27
-28 -42 -36 -70 -36 -51 0 -140 -45 -182 -92 -50 -55 -101 -87 -126 -81 -19 5
-20 11 -16 77 8 129 -21 207 -84 221 -17 4 -46 17 -65 30 l-34 23 33 24 c17
14 62 42 99 63 69 40 93 72 82 108 -17 52 -115 88 -258 92 -91 3 -126 10 -126
25 0 5 8 11 18 15 22 6 42 45 37 71 -2 11 -4 24 -4 31 -1 7 -16 24 -35 38 -38
29 -95 37 -174 24 -28 -4 -81 -10 -117 -14 -88 -8 -166 -38 -216 -85 -41 -38
-69 -43 -69 -11 -1 52 -65 210 -105 255 -14 17 -28 41 -32 55 -7 34 -37 66
-74 81 -27 12 -29 16 -30 69 -1 104 -16 136 -74 162 -24 11 -48 26 -52 33 -16
26 -63 48 -93 44 -30 -4 -37 -1 -142 64 -24 15 -70 33 -103 41 -51 12 -70 12
-125 0 -57 -12 -89 -18 -125 -22 -5 -1 -26 -11 -45 -23 -19 -12 -42 -23 -50
-24 -38 -5 -58 -19 -82 -59 -29 -47 -52 -58 -154 -69 -56 -6 -114 -28 -156
-57 l-26 -19 -22 30 c-29 41 -55 53 -120 56 -87 5 -112 9 -153 23 -22 7 -53
10 -72 7 -37 -7 -100 17 -90 34 4 6 2 10 -4 10 -5 0 -13 -5 -16 -10 -3 -6 -20
-17 -36 -26 -30 -15 -30 -15 -104 47 l-73 62 36 74 c20 40 40 73 45 73 4 0 13
-13 18 -30 12 -33 29 -31 29 4 0 12 11 32 25 44 30 26 31 55 5 117 -33 77 -25
139 25 191 17 18 119 135 169 194 26 30 51 56 57 56 5 1 17 2 28 3 29 2 79 57
86 94 4 19 2 51 -3 71 -6 20 -8 52 -5 71 3 20 1 41 -6 49 -6 7 -9 20 -5 29 4
12 1 14 -14 10 -23 -6 -53 41 -76 117 l-15 50 36 0 c35 0 54 15 132 107 44 51
331 43 604 -18 74 -16 94 -25 123 -54 26 -27 43 -35 70 -35 21 0 37 -6 40 -15
3 -8 22 -19 41 -24 30 -9 38 -7 52 10 9 11 27 21 40 24 13 2 26 7 29 9 2 3 14
-1 26 -9 11 -8 29 -15 40 -15 10 0 29 -11 42 -25 25 -27 68 -33 95 -12 9 7 26
28 37 46 l21 34 7 -29 c4 -16 14 -35 22 -43 17 -18 74 -19 117 -4 59 22 119
32 132 22 6 -6 17 -33 24 -62 16 -68 34 -94 70 -102 73 -16 94 19 102 170 8
149 40 225 95 225 13 0 46 8 73 17 45 16 50 16 84 0 20 -9 50 -17 68 -17 46 0
119 42 137 79 10 20 20 29 30 25 39 -16 97 -14 135 5 45 22 71 26 80 11z
m-813 -2389 c6 -20 21 -39 40 -51 31 -19 31 -19 7 -23 -110 -21 -138 -24 -160
-20 -16 3 -30 -1 -38 -11 -8 -9 -24 -16 -38 -16 -14 0 -21 -4 -18 -10 3 -6 -4
-10 -18 -10 -14 0 -35 -13 -51 -30 -25 -29 -26 -32 -10 -48 17 -16 15 -17 -35
-24 -36 -4 -67 -16 -98 -38 -24 -18 -46 -30 -49 -27 -3 2 2 21 11 41 8 20 22
52 30 71 8 19 19 35 24 35 6 0 21 16 35 36 20 29 24 45 19 78 l-5 42 59 -4
c32 -2 69 -3 83 -3 14 1 36 0 50 -1 77 -5 94 -1 114 25 26 32 38 29 48 -12z"/>
<path d="M1950 3228 c0 -11 52 -183 110 -363 21 -66 57 -181 80 -255 23 -74
54 -175 70 -225 16 -49 43 -136 60 -193 l32 -103 71 3 71 3 129 385 c70 212
139 418 151 459 l23 74 50 -149 c28 -82 97 -290 154 -461 l104 -313 70 0 70 0
94 303 c205 656 261 837 261 840 0 2 -31 3 -70 3 -48 -1 -74 -6 -85 -16 -12
-13 -67 -177 -90 -270 -2 -8 -40 -136 -84 -284 -44 -148 -84 -284 -87 -303 -4
-19 -8 -32 -10 -30 -2 2 -70 199 -150 438 -96 285 -152 440 -165 451 -23 20
-94 17 -116 -4 -13 -13 -263 -736 -291 -843 l-16 -60 -9 35 c-50 184 -257 864
-266 873 -14 14 -161 18 -161 5z"/>
</g>
</svg>
